<?xml version="1.0" standalone="no"?>
<!DOCTYPE svg PUBLIC "-//W3C//DTD SVG 20010904//EN"
 "http://www.w3.org/TR/2001/REC-SVG-20010904/DTD/svg10.dtd">
<svg version="1.0" xmlns="http://www.w3.org/2000/svg"
 width="1222.000000pt" height="1280.000000pt" viewBox="0 0 1222.000000 1280.000000"
 preserveAspectRatio="xMidYMid meet">
<metadata>
Created by potrace 1.15, written by Peter Selinger 2001-2017
</metadata>
<g transform="translate(0.000000,1280.000000) scale(0.100000,-0.100000)" 
fill="#E3728C" stroke="none">
<path d="M7470 12749 c-161 -25 -468 -94 -570 -128 -14 -4 -41 -13 -60 -19
-206 -62 -409 -128 -550 -178 -258 -91 -385 -135 -635 -219 -327 -109 -416
-136 -545 -165 -98 -22 -190 -45 -342 -87 -397 -108 -434 -115 -600 -117 -131
-1 -137 0 -162 23 -22 21 -29 23 -51 13 -14 -7 -39 -12 -54 -12 -33 0 -126 46
-182 91 l-39 31 -101 -59 c-118 -68 -120 -70 -279 -367 -38 -71 -41 -81 -26
-91 9 -7 69 -22 133 -35 65 -12 125 -28 134 -36 8 -8 37 -18 62 -23 26 -4 54
-14 63 -22 21 -17 46 -69 77 -159 173 -498 223 -1243 128 -1905 -23 -159 -73
-400 -121 -590 -77 -301 -243 -773 -367 -1045 -17 -36 -40 -87 -53 -115 -21
-47 -172 -351 -201 -405 -65 -120 -199 -347 -219 -371 l-25 -30 -45 58 c-189
244 -419 417 -675 509 -182 65 -258 77 -470 78 -196 1 -257 -7 -450 -60 -33
-9 -73 -20 -90 -24 -64 -17 -91 -28 -182 -66 -17 -8 -34 -14 -37 -14 -17 0
-166 -75 -225 -114 -219 -141 -412 -386 -521 -661 -51 -128 -101 -346 -136
-590 -32 -225 -18 -1049 22 -1244 58 -287 227 -696 410 -986 279 -444 620
-749 1044 -932 284 -123 637 -178 979 -154 544 40 933 184 1341 499 107 83
330 305 443 441 73 88 267 360 267 374 0 2 22 43 49 90 84 145 162 313 261
562 4 11 20 54 35 95 14 41 32 91 40 110 43 115 56 208 62 456 4 163 2 246
-12 365 -37 334 -99 519 -252 750 -135 205 -240 303 -381 358 -145 55 -214 66
-447 66 -218 0 -278 -7 -460 -51 -144 -35 -143 -35 -96 44 174 296 384 717
528 1062 85 202 219 571 253 695 5 17 16 55 25 85 52 174 115 433 154 630 30
151 60 363 82 582 15 155 15 647 0 768 -42 331 -55 419 -77 514 -19 81 -8 89
53 39 26 -22 138 -109 248 -193 203 -156 304 -253 536 -510 418 -466 832
-1040 1124 -1560 33 -58 70 -123 82 -145 55 -97 226 -442 277 -560 32 -71 66
-150 77 -174 27 -57 100 -247 151 -386 62 -173 127 -379 171 -545 8 -30 22
-80 30 -110 19 -69 86 -368 97 -435 44 -258 55 -335 86 -605 24 -208 24 -887
0 -1120 -21 -209 -25 -230 -38 -230 -6 0 -38 20 -72 44 -103 73 -302 162 -456
203 -212 56 -483 57 -655 3 -191 -61 -284 -101 -375 -163 -151 -104 -370 -309
-472 -442 -95 -125 -172 -262 -255 -450 -109 -249 -171 -617 -159 -950 17
-480 123 -866 351 -1280 86 -157 298 -448 447 -616 229 -256 516 -461 813
-579 44 -17 89 -36 100 -41 45 -19 175 -59 295 -90 135 -35 423 -69 582 -69
156 0 484 50 689 104 378 101 665 237 916 432 401 314 695 750 856 1269 95
306 130 560 130 950 1 441 -28 616 -154 932 -88 222 -221 425 -371 569 -350
334 -816 453 -1353 345 -152 -30 -371 -105 -500 -171 -22 -11 -43 -16 -47 -12
-5 5 -4 40 1 78 44 300 43 281 31 572 -28 668 -40 857 -60 946 -5 23 -10 59
-10 80 0 22 -4 65 -10 95 -5 31 -17 101 -26 156 -24 142 -61 336 -85 435 -11
47 -27 114 -35 150 -9 36 -21 85 -29 110 -7 25 -18 63 -24 85 -38 138 -146
471 -185 570 -13 33 -36 92 -51 130 -15 39 -34 86 -42 105 -8 19 -18 44 -23
55 -13 32 -57 133 -113 260 -101 229 -310 626 -477 905 -250 417 -609 912
-924 1275 -428 491 -723 803 -824 870 -23 15 -42 31 -42 35 0 18 94 91 152
118 281 129 702 44 1313 -268 299 -152 556 -312 922 -573 665 -474 1094 -670
1658 -756 134 -20 376 -32 455 -21 41 5 131 10 200 10 69 0 262 9 430 20 562
37 691 42 970 36 631 -14 1106 -91 1364 -221 39 -19 71 -35 73 -35 15 0 -15
45 -126 188 -71 91 -127 170 -125 174 6 9 71 -14 145 -52 37 -19 59 -25 59
-17 0 13 -322 407 -443 541 -349 390 -1293 1332 -1584 1581 -352 301 -926 519
-1593 604 -280 36 -850 53 -1000 30z"/>
</g>
</svg>
