<svg id="Capa_1" enable-background="new 0 0 512 512" height="512" viewBox="0 0 512 512" width="512" xmlns="http://www.w3.org/2000/svg"><g stroke="currentColor"><path d="m200.31 148.701 55.69 55.69 55.689-55.689 55.689 55.689 40.148-40.148c-21.557-23.183-48.357-41.422-78.487-52.83l-13.586-73.305h-44.453v-38.108h-30v38.108h-44.454l-13.586 73.305c-30.13 11.408-56.93 29.646-78.487 52.83l40.148 40.147z"/><path d="m311.689 462.399-55.689-55.689-55.689 55.689-55.689-55.689-39.66 39.659c37.79 40.362 91.515 65.631 151.038 65.631s113.248-25.269 151.038-65.631l-39.659-39.659z"/><path d="m426.424 187.771-59.046 59.046-55.689-55.689-55.689 55.688-55.689-55.688-55.689 55.688-59.046-59.045c-23.025 33.357-36.532 73.764-36.532 117.272 0 43.769 13.67 84.399 36.947 117.871l58.631-58.63 55.689 55.688 55.689-55.688 55.689 55.689 55.689-55.689 58.63 58.63c23.278-33.471 36.947-74.102 36.947-117.871.001-43.508-13.506-83.915-36.531-117.272zm-210.924 132.272h-30v-30h30zm111 0h-30v-30h30z"/></g></svg>