<?xml version="1.0" encoding="iso-8859-1"?>
<!-- Generator: Adobe Illustrator 19.0.0, SVG Export Plug-In . SVG Version: 6.00 Build 0)  -->
<svg version="1.1" id="Capa_1" xmlns="http://www.w3.org/2000/svg" xmlns:xlink="http://www.w3.org/1999/xlink" x="0px" y="0px"
	 viewBox="0 0 512 512" style="enable-background:new 0 0 512 512;" xml:space="preserve">
<g>
	<g>
		<path d="M390.738,436.592l-21.478-36.817h6.982c2.521,0,4.874-1.267,6.261-3.371c1.388-2.105,1.625-4.766,0.632-7.083
			L339.519,287.55h20.69c2.58,0,4.978-1.326,6.35-3.509c1.373-2.184,1.526-4.92,0.407-7.244L332.07,204.32
			c2.262-3.613,3.574-7.879,3.574-12.447c0-12.058-9.118-22.021-20.82-23.371l-31.517-65.457c0.445,0.081,0.893,0.135,1.342,0.135
			c1.555,0,3.103-0.483,4.409-1.432c2.31-1.678,3.466-4.522,2.984-7.335l-4.805-28.017l20.355-19.842
			c2.044-1.993,2.78-4.973,1.897-7.688c-0.882-2.715-3.229-4.694-6.054-5.104l-28.13-4.087l-12.58-25.491
			C261.463,1.621,258.856,0,256.001,0c-2.855,0-5.462,1.621-6.726,4.181l-12.58,25.491l-28.13,4.087
			c-2.825,0.41-5.172,2.389-6.054,5.104c-0.882,2.715-0.146,5.696,1.897,7.688l20.355,19.842l-4.805,28.017
			c-0.482,2.813,0.674,5.657,2.984,7.335c1.683,1.222,3.764,1.661,5.748,1.301l-12.81,26.606c-2.492-0.901-5.177-1.394-7.976-1.394
			c-12.976,0-23.532,10.557-23.532,23.532c0,8.458,4.487,15.885,11.204,20.034l-50.542,104.971c-1.119,2.324-0.965,5.06,0.407,7.244
			c1.372,2.184,3.771,3.509,6.35,3.509h20.69l-4.451,10.386c-9.148,3.228-15.723,11.956-15.723,22.195
			c0,3.437,0.747,6.701,2.077,9.647l-25.519,59.544c-0.993,2.317-0.755,4.979,0.632,7.083c1.388,2.104,3.74,3.371,6.261,3.371h6.982
			l-21.478,36.817c-1.353,2.32-1.363,5.186-0.025,7.515c1.337,2.329,3.818,3.765,6.503,3.765h96.71V497h-8.532
			c-4.142,0-7.5,3.358-7.5,7.5c0,4.142,3.358,7.5,7.5,7.5h80.161c4.142,0,7.5-3.358,7.5-7.5c0-4.142-3.358-7.5-7.5-7.5h-8.532
			v-49.129h96.71c2.686,0,5.166-1.436,6.503-3.765C392.101,441.778,392.091,438.912,390.738,436.592z M312.114,183.339
			c4.704,0,8.532,3.828,8.532,8.532c0,4.705-3.828,8.532-8.532,8.532c-4.704,0-8.532-3.828-8.532-8.532
			C303.582,187.167,307.41,183.339,312.114,183.339z M225.761,46.417l16.994-2.469c2.443-0.355,4.555-1.889,5.647-4.103l7.6-15.399
			l7.6,15.399c1.092,2.213,3.204,3.748,5.647,4.103l16.994,2.469l-12.296,11.986c-1.768,1.723-2.575,4.206-2.157,6.638l2.903,16.925
			l-15.199-7.991c-1.093-0.574-2.292-0.861-3.49-0.861s-2.397,0.287-3.49,0.861l-15.199,7.991l2.903-16.925
			c0.417-2.433-0.389-4.915-2.157-6.638L225.761,46.417z M207.904,143.258c4.705,0,8.532,3.828,8.532,8.532
			s-3.828,8.532-8.532,8.532s-8.532-3.828-8.532-8.532S203.2,143.258,207.904,143.258z M175.84,311.597
			c4.704,0,8.532,3.828,8.532,8.532c0,4.704-3.828,8.532-8.532,8.532c-4.704,0-8.532-3.828-8.532-8.532
			C167.308,315.424,171.136,311.597,175.84,311.597z M272.549,497h-33.097v-49.129h33.097V497z M140.8,432.871l19.307-33.097h17.481
			c3.139,9.308,11.946,16.032,22.3,16.032s19.16-6.724,22.3-16.032h33.813c4.142,0,7.5-3.358,7.5-7.5c0-4.142-3.358-7.5-7.5-7.5
			h-33.813c-3.139-9.308-11.946-16.033-22.3-16.033s-19.16,6.724-22.3,16.033h-30.455l18.599-43.399
			c3.064,1.464,6.491,2.285,10.107,2.285c12.976,0,23.532-10.557,23.532-23.532c0-10.011-6.287-18.577-15.118-21.971l4.547-10.61
			h51.167c4.142,0,7.5-3.358,7.5-7.5c0-4.142-3.358-7.5-7.5-7.5h-76.242l46.89-97.387c11.702-1.35,20.82-11.313,20.82-23.371
			c0-4.568-1.313-8.833-3.575-12.447l22.861-47.481l5.28-2.773l5.277,2.774l38.507,79.975c-6.717,4.149-11.204,11.576-11.204,20.034
			c0,12.976,10.557,23.532,23.532,23.532c2.799,0,5.484-0.493,7.976-1.394l28.185,58.539h-28.146c-4.142,0-7.5,3.358-7.5,7.5
			c0,4.142,3.358,7.5,7.5,7.5h3.071l41.668,97.226H336.16c-4.142,0-7.5,3.358-7.5,7.5c0,4.142,3.358,7.5,7.5,7.5h15.732
			l19.307,33.097H140.8z M191.356,392.274c0-4.705,3.828-8.533,8.532-8.533c4.704,0,8.532,3.828,8.532,8.533
			c0,4.705-3.828,8.532-8.532,8.532C195.184,400.806,191.356,396.979,191.356,392.274z"/>
	</g>
</g>
<g>
	<g>
		<path d="M288.065,272.548h-16.032c-4.142,0-7.5,3.358-7.5,7.5c0,4.142,3.358,7.5,7.5,7.5h16.032c4.143,0,7.5-3.358,7.5-7.5
			C295.565,275.906,292.207,272.548,288.065,272.548z"/>
	</g>
</g>
<g>
	<g>
		<path d="M304.098,384.774h-16.032c-4.142,0-7.5,3.358-7.5,7.5c0,4.142,3.358,7.5,7.5,7.5h16.032c4.142,0,7.5-3.358,7.5-7.5
			C311.598,388.132,308.24,384.774,304.098,384.774z"/>
	</g>
</g>
<g>
	<g>
		<path d="M231.953,200.403c-12.976,0-23.532,10.557-23.532,23.532s10.557,23.532,23.532,23.532
			c12.975,0,23.532-10.557,23.532-23.532S244.928,200.403,231.953,200.403z M231.953,232.468c-4.705,0-8.532-3.828-8.532-8.532
			c0-4.704,3.828-8.532,8.532-8.532c4.704,0,8.532,3.828,8.532,8.532C240.485,228.64,236.657,232.468,231.953,232.468z"/>
	</g>
</g>
<g>
	<g>
		<path d="M304.098,312.629c-12.976,0-23.532,10.557-23.532,23.532c0,12.975,10.557,23.532,23.532,23.532
			c12.975,0,23.532-10.557,23.532-23.532C327.63,323.186,317.073,312.629,304.098,312.629z M304.098,344.693
			c-4.705,0-8.532-3.828-8.532-8.532c0-4.704,3.828-8.532,8.532-8.532c4.704,0,8.532,3.828,8.532,8.532
			C312.63,340.865,308.802,344.693,304.098,344.693z"/>
	</g>
</g>
<g>
</g>
<g>
</g>
<g>
</g>
<g>
</g>
<g>
</g>
<g>
</g>
<g>
</g>
<g>
</g>
<g>
</g>
<g>
</g>
<g>
</g>
<g>
</g>
<g>
</g>
<g>
</g>
<g>
</g>
</svg>
