<svg height="512" viewBox="0 0 48 60" width="512" xmlns="http://www.w3.org/2000/svg"><g id="Page-1" fill="none" fill-rule="evenodd"><g id="047---Bauble" fill="rgb(0,0,0)" fill-rule="nonzero"><path id="Shape" d="m47.935 34.364c-.1607175-2.3829327-.6753605-4.7286532-1.527-6.96-.009-.031-.022-.06-.034-.09-2.5170253-6.5228252-7.7727849-11.6103888-14.374-13.914v-2.4c-.0029983-2.37510083-1.6735832-4.42156735-4-4.9v-2.1c0-2.209139-1.790861-4-4-4s-4 1.790861-4 4v2.1c-2.3264168.47843265-3.9970017 2.52489917-4 4.9v2.4c-11.49982558 4.0734334-18.11110067 16.1289144-15.36382398 28.0155169 2.7472767 11.8866025 13.97807718 19.8183553 26.09905638 18.4324586 12.1209793-1.3858967 21.2715155-11.6480246 21.2647676-23.8479755 0-.544-.029-1.083-.065-1.62zm-45.935 1.636c0-.357.026-.709.042-1.062 2.033.728 4.031 1.656 5.967 2.567 2.7153383 1.3745681 5.5470641 2.5059868 8.462 3.381 3.5737022.9598703 7.2576376 1.4480136 10.958 1.452 3.7363441.0158099 7.4545124-.5206523 11.034-1.592 2.741126-.8001866 5.2959287-2.1370731 7.516-3.933-.0531559 1.4694582-.2541702 2.9298273-.6 4.359-2.1418732 1.9501218-4.7103351 3.3720222-7.5 4.152-6.8185941 1.9686772-14.0492389 2.0102127-20.89.12-2.8059277-.8441383-5.5318449-1.9343713-8.146-3.258-2.14039508-1.0531435-4.3370393-1.9878857-6.58-2.8-.17463305-1.1202213-.26256074-2.2522485-.263-3.386zm1.778-8.7c1.434.589 2.859 1.24 4.243 1.889 2.7108606 1.3707495 5.5387692 2.4965584 8.45 3.364 3.5736597.9601966 7.2575943 1.448676 10.958 1.453 3.7346247.0157147 7.4510818-.5204067 11.029-1.591 2.3212548-.6800632 4.5179877-1.7291331 6.506-3.107.4924008 1.554388.8113404 3.1584767.951 4.783-2.2140638 2.2611787-4.9868379 3.8964841-8.037 4.74-6.8179905 1.9681443-14.0478465 2.0096792-20.888.12-2.7997752-.8440633-5.5201842-1.9318922-8.13-3.251-2.15617229-1.0599181-4.36920503-2.0000147-6.629-2.816.26730206-1.9213809.7874764-3.7989849 1.547-5.584zm2.387-4.219c.607.279 1.213.558 1.816.842 2.7239341 1.3791257 5.5651266 2.5132602 8.49 3.389 3.5728687.9607455 7.256215 1.449236 10.956 1.453 3.7372888.0152424 7.4563635-.5212047 11.037-1.592 1.6337757-.4942545 3.2095376-1.1631152 4.7-1.995.4002108.7025889.7614244 1.4266853 1.082 2.169-1.9183584 1.4211914-4.0747794 2.4889042-6.368 3.153-6.8186694 1.9681559-14.0491697 2.0096906-20.89.12-2.7960229-.8399796-5.5125409-1.9248467-8.118-3.242-1.37-.638-2.78-1.278-4.214-1.878.44967932-.8374345.95375959-1.6444975 1.509-2.416zm15.835-19.081c0-1.1045695.8954305-2 2-2s2 .8954305 2 2v2h-4zm-1 4h6c1.6568542 0 3 1.34314575 3 3v2.867c-.6033276.3941799-1.2862513.6502763-2 .75v-2.617c0-.5522847-.4477153-1-1-1s-1 .4477153-1 1v2.908c-.609.055-1.266.092-2 .092s-1.391-.037-2-.092v-2.908c0-.5522847-.4477153-1-1-1s-1 .4477153-1 1v2.617c-.7137487-.0997237-1.3966724-.3558201-2-.75v-2.867c0-1.65685425 1.3431458-3 3-3zm-4.387 7.3c1.748 1.64 6.714 1.7 7.387 1.7s5.639-.06 7.387-1.7c4.3446227 1.5306483 8.0942368 4.3954473 10.713 8.185-1.342566.7391786-2.7589875 1.3354431-4.226 1.779-6.8184766 1.9671343-14.0483732 2.0086675-20.889.12-2.8093919-.8476188-5.5386166-1.9411826-8.156-3.268-.459-.215-.919-.425-1.379-.639 2.47532476-2.8092953 5.6303376-4.9361658 9.163-6.177zm7.387 42.7c-9.9503868-.0131548-18.65757355-6.6927079-21.248-16.3 1.782.681 3.535 1.5 5.239 2.3 2.7201329 1.3777446 5.5581221 2.5092589 8.48 3.381 3.5741819.9586072 7.2585 1.4450757 10.959 1.447 3.7343418.0163635 7.450564-.5197726 11.028-1.591 2.0412581-.6050541 3.9887918-1.4901437 5.787-2.63-3.4592109 8.1141873-11.4242244 13.3834106-20.245 13.393z"/><path id="Shape" d="m24 54c-4.7752682.0098023-9.3561105-1.8906604-12.722-5.278-.2510745-.2599566-.6228779-.3642126-.9725073-.2726972-.34962946.0915155-.62267442.3645604-.71418986.7141899-.09151544.3496294.01274058.7214328.27269716.9725073 3.7399324 3.7638461 8.8300126 5.8753507 14.136 5.864.5522847 0 1-.4477153 1-1s-.4477153-1-1-1z"/></g></g></svg>