<svg id="Capa_1" enable-background="new 0 0 512.016 512.016" height="512" viewBox="0 0 512.016 512.016" width="512" xmlns="http://www.w3.org/2000/svg"><g><path d="m309.008 81c0-12.682-10.318-23-23-23s-23 10.318-23 23 10.318 23 23 23 23-10.318 23-23zm-31 0c0-4.411 3.589-8 8-8s8 3.589 8 8-3.589 8-8 8-8-3.589-8-8zm-61.031 41.205c-2.097-3.573-6.694-4.77-10.264-2.673-3.573 2.096-4.77 6.692-2.673 10.264 10.913 18.598 30.713 29.964 51.987 29.964 31.335 0 51.787-28.719 51.954-29.969 2.093-3.574.893-8.169-2.681-10.262-3.573-2.093-8.169-.893-10.262 2.681-.522.891-13.062 21.826-37.729 22.532-16.454.462-31.9-8.166-40.332-22.537zm212.822 40.291h-80.19c-3.631 0-5.417-2.419-6.016-3.46-.614-1.065-1.839-3.892.035-7.123 8.896-15.34 13.597-32.87 13.597-50.695 0-55.812-45.406-101.218-101.217-101.218-16.381 0-32.655 4.006-47.063 11.585-3.666 1.929-5.074 6.463-3.146 10.129s6.463 5.074 10.129 3.146c12.263-6.45 26.122-9.86 40.08-9.86 47.54 0 86.217 38.677 86.217 86.217 0 15.186-4.002 30.114-11.573 43.17-4.023 6.938-4.045 15.213-.057 22.135 3.958 6.871 11.066 10.973 19.014 10.973h42.945c.457 7.723 5.363 11.803 8.67 14.541 3.002 2.485 3.285 2.975 3.285 4.164 0 1.188-.283 1.678-3.285 4.164-3.47 2.873-8.715 7.215-8.715 15.706 0 8.496 5.245 12.841 8.715 15.716 3.001 2.486 3.285 2.976 3.285 4.165 0 1.182-.283 1.67-3.281 4.152-3.309 2.74-8.219 6.823-8.674 14.556h-34.518c-12.697 0-23.027 10.322-23.027 23.009v17.635c0 4.142 3.358 7.5 7.5 7.5s7.5-3.358 7.5-7.5v-17.635c0-4.417 3.601-8.009 8.027-8.009h71.764c29.574 0 53.635-24.036 53.635-53.581s-24.062-53.582-53.636-53.582zm0 92.162h-22.054c.34-.657 1.15-1.43 3.048-3.002 3.47-2.873 8.715-7.215 8.715-15.706 0-8.497-5.245-12.841-8.716-15.716-3.001-2.486-3.284-2.976-3.284-4.164 0-1.182.283-1.67 3.281-4.152 3.472-2.875 8.719-7.219 8.719-15.718s-5.247-12.843-8.72-15.718c-1.886-1.562-2.697-2.334-3.039-2.986h22.05c21.303 0 38.635 17.308 38.635 38.582 0 21.273-17.332 38.58-38.635 38.58zm-173.791-50.658c-12.682 0-23 10.318-23 23s10.318 23 23 23 23-10.318 23-23-10.318-23-23-23zm0 31c-4.411 0-8-3.589-8-8s3.589-8 8-8 8 3.589 8 8-3.589 8-8 8zm-30-177c-12.682 0-23 10.318-23 23s10.318 23 23 23 23-10.318 23-23-10.318-23-23-23zm0 31c-4.411 0-8-3.589-8-8s3.589-8 8-8 8 3.589 8 8-3.589 8-8 8zm30 175c-12.682 0-23 10.318-23 23s10.318 23 23 23 23-10.318 23-23-10.318-23-23-23zm0 31c-4.411 0-8-3.589-8-8s3.589-8 8-8 8 3.589 8 8-3.589 8-8 8zm98.402 71.424c-2.88-4.988-4.402-10.668-4.402-16.426v-19.695c0-4.142-3.358-7.5-7.5-7.5s-7.5 3.358-7.5 7.5v19.695c0 8.387 2.217 16.661 6.412 23.926l12.472 21.602c-1.215.717-2.431 1.629-3.612 2.81-6.009 6.009-5.371 12.79-4.949 17.276.365 3.877.219 4.423-.622 5.264s-1.388.987-5.264.621c-4.486-.421-11.267-1.061-17.276 4.949-6.004 6.004-5.366 12.784-4.944 17.271.365 3.877.22 4.422-.617 5.259-.84.841-1.387.987-5.268.621-3.684-.346-8.913-.831-13.987 2.327l-22.297-38.619c-3.974-6.884-11.096-10.994-19.049-10.994s-15.075 4.11-19.049 10.994l-22.297 38.619c-5.076-3.159-10.305-2.674-13.987-2.327-3.879.366-4.426.22-5.268-.621-.836-.836-.981-1.381-.616-5.259.422-4.487 1.061-11.267-4.944-17.271-6.01-6.009-12.789-5.369-17.276-4.948-3.876.365-4.424.219-5.264-.621-.84-.841-.986-1.387-.622-5.264.422-4.487 1.061-11.267-4.948-17.275-1.181-1.182-2.397-2.094-3.612-2.811l12.472-21.602c4.195-7.266 6.412-15.539 6.412-23.926v-72.331c0-12.688-10.33-23.009-23.027-23.009h-46.235c.34-.657 1.15-1.43 3.048-3.002 3.47-2.873 8.715-7.215 8.715-15.706 0-8.497-5.245-12.841-8.716-15.716-3.001-2.486-3.284-2.976-3.284-4.164 0-1.182.283-1.67 3.281-4.152 3.472-2.875 8.719-7.219 8.719-15.718s-5.247-12.843-8.72-15.718c-1.886-1.562-2.697-2.334-3.039-2.986h54.658c7.948 0 15.056-4.102 19.014-10.973 3.988-6.922 3.967-15.197-.056-22.135-7.572-13.057-11.574-27.985-11.574-43.171 0-20.735 7.467-40.773 21.024-56.424 2.712-3.13 2.373-7.867-.758-10.58-3.13-2.711-7.867-2.372-10.579.758-15.92 18.377-24.688 41.903-24.688 66.245 0 17.825 4.702 35.355 13.598 50.696 1.874 3.231.648 6.057.035 7.123-.6 1.041-2.385 3.46-6.017 3.46h-80.19c-29.574 0-53.635 24.037-53.635 53.582s24.061 53.581 53.635 53.581h71.764c4.426 0 8.027 3.593 8.027 8.009v72.331c0 5.758-1.522 11.438-4.402 16.426l-37.687 65.276c-14.752 25.551-5.956 58.347 19.608 73.107 12.401 7.16 26.851 9.064 40.686 5.361 13.837-3.703 25.399-12.57 32.557-24.967 1.013-.297 37.179-64.396 37.179-64.396 1.821-3.154 4.844-3.494 6.059-3.494s4.238.34 6.059 3.494c7.012 12.145 30.456 52.751 37.179 64.396 7.157 12.397 18.719 21.264 32.557 24.967 4.617 1.236 9.301 1.847 13.957 1.847 9.293 0 18.467-2.438 26.729-7.208 25.564-14.76 34.361-47.556 19.608-73.107zm-253.187-134.638c3.001 2.486 3.285 2.976 3.285 4.165 0 1.182-.283 1.67-3.281 4.152-3.309 2.74-8.219 6.823-8.674 14.556h-10.336c-21.303 0-38.635-17.307-38.635-38.581s17.332-38.582 38.635-38.582h10.336c.457 7.723 5.363 11.803 8.67 14.541 3.002 2.485 3.285 2.975 3.285 4.164 0 1.188-.283 1.678-3.285 4.164-3.47 2.873-8.715 7.215-8.715 15.706 0 8.495 5.245 12.84 8.715 15.715zm98.556 245.916c-5.153 8.926-13.479 15.31-23.444 17.977-9.967 2.668-20.375 1.295-29.308-3.861-18.401-10.625-24.735-34.228-14.118-52.617l17.717-30.687c1.614 1.121 1.52 1.502 1.125 5.693-.422 4.487-1.061 11.267 4.949 17.276 6.009 6.01 12.791 5.371 17.276 4.949 3.878-.366 4.424-.219 5.264.621.836.836.981 1.381.616 5.259-.422 4.487-1.061 11.267 4.943 17.271 6.01 6.009 12.793 5.373 17.28 4.949 3.556-.334 4.307-.238 5.056.429zm165.21 14.115c-8.933 5.158-19.341 6.529-29.308 3.861-9.965-2.667-18.291-9.051-23.444-17.977l-7.356-12.741c.748-.667 1.497-.763 5.056-.429 4.487.422 11.271 1.06 17.28-4.949 6.004-6.004 5.366-12.784 4.944-17.271-.365-3.877-.22-4.422.616-5.258.84-.841 1.386-.987 5.264-.622 4.486.421 11.266 1.061 17.276-4.949 6.009-6.009 5.371-12.79 4.949-17.276-.394-4.184-.395-4.63 1.125-5.694l17.717 30.688c10.616 18.389 4.282 41.993-14.119 52.617zm-108.981-167.817c-12.682 0-23 10.318-23 23s10.318 23 23 23 23-10.318 23-23-10.318-23-23-23zm0 31c-4.411 0-8-3.589-8-8s3.589-8 8-8 8 3.589 8 8-3.589 8-8 8z"/></g></svg>