<svg id="Capa_1" enable-background="new 0 0 512 512" height="512" viewBox="0 0 512 512" width="512" xmlns="http://www.w3.org/2000/svg"><g><path d="m16.274 236.808c-2.286 8.42 2.732 16.285 10.302 18.344 2.235.694 36.711 12.082 50.402 56.969 2.202 7.221 9.421 11.679 16.86 10.405 17.944-3.071 32.791-1.056 44.347 2.661-5.984 10.423-9.426 22.485-9.426 35.345 0 39.249 31.902 71.179 71.115 71.179 22.796 0 43.105-10.803 56.129-27.549 13.023 16.746 33.333 27.549 56.128 27.549 39.213 0 71.115-31.931 71.115-71.179 0-12.859-3.442-24.922-9.426-35.345 11.557-3.716 26.404-5.731 44.347-2.661 7.439 1.277 14.658-3.184 16.86-10.405 13.691-44.887 48.167-56.275 50.402-56.969 7.546-2.052 12.594-9.9 10.302-18.344-12.281-45.249 10.704-73.054 12.229-74.831 10.256-11.115-.558-28.667-15.083-24.478-2.267.564-37.402 8.643-72.289-22.667-6.505-5.838-15.774-4.854-20.999.973-1.621 1.684-27.272 27.396-73.492 19.49-7.431-1.271-14.652 3.183-16.857 10.401-7.748 25.37-22.008 40.139-34.264 48.554-1.315-.365-2.642-.698-3.987-.988v-97.972c0-8.284-6.71-15-14.986-15-8.277 0-14.986 6.716-14.986 15v97.971c-1.344.29-2.672.623-3.987.988-12.256-8.415-26.516-23.184-34.264-48.554-2.205-7.219-9.426-11.672-16.857-10.401-46.222 7.906-71.872-17.806-73.493-19.49-5.223-5.826-14.493-6.811-20.998-.973-34.895 31.316-70.039 23.227-72.29 22.666-14.511-4.176-25.35 13.348-15.083 24.478 1.517 1.769 24.512 29.576 12.229 74.833zm183.599 164.902c-22.686 0-41.142-18.473-41.142-41.179s18.456-41.18 41.142-41.18 41.142 18.473 41.142 41.18-18.456 41.179-41.142 41.179zm97.271-138.874c0 22.707-18.456 41.18-41.142 41.18s-41.142-18.473-41.142-41.18 18.456-41.179 41.142-41.179 41.142 18.472 41.142 41.179zm14.986 138.874c-22.686 0-41.142-18.473-41.142-41.179s18.456-41.18 41.142-41.18 41.142 18.473 41.142 41.18-18.456 41.179-41.142 41.179zm21.5-235.279c3.362.258 6.632.38 9.814.38 32.02-.002 54.859-12.32 67.296-21.351 21.624 15.957 42.998 21.498 59.491 22.91-6.145 15.386-10.798 36.983-6.264 63.486-15.006 7.767-39.199 24.989-53.35 59.533-24.592-1.886-44.344 3.562-58.686 10.183-8.857-6.009-19.137-10.055-30.215-11.556.816-1.969 1.556-3.977 2.195-6.03l96.41-67.315c6.788-4.74 8.452-14.09 3.717-20.884-4.735-6.795-14.078-8.461-20.865-3.72l-77.967 54.438c-3.39-14.392-11.144-27.112-21.798-36.669 10.674-9.671 22.1-23.676 30.222-43.405zm-232.368-20.971c13.675 9.929 39.907 23.832 77.111 20.971 8.123 19.729 19.549 33.734 30.223 43.405-10.655 9.557-18.408 22.277-21.799 36.669l-77.967-54.438c-6.787-4.74-16.13-3.074-20.865 3.72s-3.071 16.145 3.717 20.884l96.41 67.315c.64 2.053 1.379 4.061 2.195 6.03-11.077 1.501-21.358 5.547-30.215 11.556-14.344-6.622-34.098-12.069-58.686-10.184-14.151-34.543-38.344-51.766-53.35-59.533 4.534-26.503-.118-48.101-6.263-63.486 16.492-1.412 37.865-6.952 59.489-22.909z"/></g></svg>