<svg enable-background="new 0 0 24 24" height="512" viewBox="0 0 24 24" width="512" xmlns="http://www.w3.org/2000/svg"><path d="m12 24c-.128 0-.256-.049-.354-.146-.633-.633-1.63-1.25-2.686-1.904-2.937-1.818-6.96-4.308-6.96-9.7 0-5.36 4.206-9.25 10-9.25s10 3.89 10 9.25c0 5.392-4.023 7.882-6.96 9.7-1.056.654-2.053 1.271-2.686 1.904-.098.097-.226.146-.354.146zm0-20c-5.215 0-9 3.47-9 8.25 0 4.835 3.597 7.061 6.486 8.85.936.579 1.828 1.131 2.514 1.72.686-.589 1.578-1.141 2.514-1.72 2.889-1.789 6.486-4.015 6.486-8.85 0-4.78-3.785-8.25-9-8.25z"/><path d="m14.5 4.28c-.276 0-.5-.224-.5-.5v-1.28c0-.827-.673-1.5-1.5-1.5h-1c-.827 0-1.5.673-1.5 1.5v1.28c0 .276-.224.5-.5.5s-.5-.224-.5-.5v-1.28c0-1.378 1.122-2.5 2.5-2.5h1c1.378 0 2.5 1.122 2.5 2.5v1.28c0 .276-.224.5-.5.5z"/><path d="m15.5 12c-.116 0-.231-.04-.325-.121l-3.175-2.72-3.175 2.721c-.198.169-.495.159-.679-.026l-2.7-2.7-2.496 1.783c-.224.161-.537.109-.697-.116-.161-.225-.109-.537.116-.697l2.84-2.03c.198-.142.471-.12.644.053l2.673 2.672 3.148-2.698c.187-.161.464-.161.65 0l3.148 2.698 2.673-2.672c.172-.173.445-.195.644-.053l2.84 2.03c.225.161.277.473.116.697-.16.225-.472.278-.697.116l-2.496-1.783-2.7 2.7c-.096.097-.224.146-.352.146z"/><path d="m15.5 16c-.116 0-.231-.04-.325-.121l-3.175-2.72-3.175 2.721c-.198.169-.495.158-.679-.026l-2.701-2.701-2.385 1.704c-.224.161-.536.108-.697-.116-.161-.225-.108-.537.116-.697l2.73-1.95c.198-.142.471-.12.644.053l2.673 2.672 3.148-2.698c.187-.161.464-.161.65 0l3.148 2.698 2.673-2.672c.172-.173.445-.195.644-.053l2.73 1.95c.225.161.277.473.116.697-.16.225-.472.278-.697.116l-2.385-1.704-2.701 2.701c-.096.097-.224.146-.352.146z"/></svg>