<svg id="Capa_1" enable-background="new 0 0 512 512" height="512" viewBox="0 0 512 512" width="512" xmlns="http://www.w3.org/2000/svg"><g><g><path d="m487.3 126.71c-10.489-.987-19.812 6.688-20.817 17.181-1.684 17.605-13.945 31.997-30.577 36.677-1.168.329-2.415-.069-3.169-1.02-28.813-36.317-73.33-59.609-123.291-59.609h-23.397c-1.022 0-1.982-.494-2.576-1.326l-24.342-34.105c-6.731-9.431-20.745-9.431-27.476 0l-24.341 34.105c-.594.832-1.553 1.326-2.576 1.326h-32.221c-9.908 0-19.6.922-29 2.675-1.212.226-2.443-.259-3.16-1.263l-26.157-36.649c-6.77-9.485-20.888-9.418-27.568.131l-34.198 63.865c-4.678 8.735-8.965 17.675-12.849 26.791-9.012 21.151-15.82 43.175-20.316 65.722l-.827 4.146c-2.121 10.3-3.238 20.967-3.238 31.895 0 86.881 70.431 157.312 157.312 157.312h104.684c5.254 0 10.293-2.087 14.009-5.803l166.639-166.639c4.744-4.744 6.789-11.573 5.377-18.132-1.976-9.181-4.757-18.062-8.259-26.57-.613-1.49.094-3.198 1.57-3.844 9.704-4.248 18.578-10.387 25.967-18.109 12.46-13.021 20.266-30.047 21.979-47.942 1.003-10.49-6.688-19.81-17.182-20.815z" fill="#eaaadd"/></g><g><path d="m487.3 126.71c-10.489-.987-19.812 6.688-20.817 17.181-1.684 17.605-13.945 31.997-30.577 36.677-1.168.329-2.415-.069-3.169-1.02-28.813-36.317-73.33-59.609-123.291-59.609h-23.397c-1.023 0-1.982-.494-2.576-1.326l-24.342-34.105c-6.731-9.431-20.745-9.431-27.476 0l-5.491 7.694 13.144 19.457c3.38 5.003 8.851 8.252 14.874 8.667 70.517 4.862 128.243 56.192 142.784 123.596 1.42 6.583-.6 13.44-5.362 18.202l-166.638 166.638c-3.715 3.716-8.754 5.803-14.008 5.803h66.242c5.254 0 10.293-2.087 14.009-5.803l166.639-166.639c4.744-4.744 6.789-11.573 5.377-18.132-1.976-9.181-4.757-18.062-8.259-26.57-.613-1.49.094-3.198 1.57-3.844 9.704-4.248 18.578-10.387 25.967-18.109 12.46-13.021 20.266-30.047 21.979-47.942 1.003-10.491-6.688-19.811-17.182-20.816z" fill="#e490d0"/></g><g><path d="m284.002 433.336c2.68-.981 5.15-2.517 7.207-4.574l166.639-166.639c2.545-2.545 4.297-5.69 5.169-9.069-13.945-4.575-28.837-7.059-44.312-7.059-78.469 0-142.081 63.612-142.081 142.081 0 15.828 2.601 31.043 7.378 45.26z" fill="#ecf4ff"/></g><g><path d="m429.206 246.386c-.144.151-.279.309-.427.457l-151.762 151.762c.887 12.057 3.277 23.696 6.985 34.732 2.68-.981 5.15-2.517 7.207-4.574l166.639-166.639c2.545-2.545 4.297-5.69 5.169-9.069-10.761-3.531-22.089-5.81-33.811-6.669z" fill="#ddeafb"/></g><g><path d="m22.634 277.252c0-10.226 1.038-20.452 3.094-30.442l.827-4.146c2.233-11.2 5.068-22.299 8.467-33.222 2.254-.465 4.55-.807 6.883-1.009 10.385-.896 20.579.925 29.48 5.269 3.685 1.801 8.135.271 9.934-3.417 1.8-3.686.271-8.135-3.417-9.934-11.321-5.528-24.213-7.854-37.279-6.72-.083.007-.165.018-.249.026 1.89-5.137 6.555-16.436 6.81-17.026 7.672 1.607 14.707 4.744 20.615 9.247 3.234 2.473 7.912 1.876 10.411-1.406 2.487-3.263 1.858-7.924-1.406-10.411-9.811-7.477-21.897-12.051-34.953-13.226-12.975-1.172-25.971 1.104-37.587 6.571-3.713 1.748-5.305 6.174-3.558 9.886 1.747 3.714 6.175 5.303 9.886 3.558 6.546-3.082 13.654-4.877 20.927-5.333-2.965 7.143-5.694 14.391-8.17 21.728-6.577 2.234-12.751 5.392-18.3 9.412-3.322 2.408-4.065 7.053-1.658 10.376 2.423 3.344 7.086 4.049 10.376 1.658 1.226-.888 2.496-1.717 3.798-2.498-2.138 7.792-4.006 15.655-5.584 23.566l-.817 4.101c-2.25 10.928-3.39 22.163-3.39 33.394 0 35.467 11.098 69.256 32.095 97.714 1.457 1.974 3.705 3.018 5.984 3.018 1.532 0 3.078-.472 4.405-1.451 3.302-2.436 4.003-7.088 1.567-10.389-19.096-25.886-29.191-56.625-29.191-88.894z"/><path d="m54.998 143.913c3.619 1.939 8.12.575 10.055-3.042l27.892-52.087c1.788-2.357 4.49-3.71 7.473-3.724h.047c3.092 0 5.892 1.441 7.689 3.959l26.157 36.648c2.382 3.336 6.53 5.002 10.569 4.25 9.07-1.692 18.368-2.549 27.638-2.549h32.221c3.412 0 6.634-1.658 8.623-4.439l24.341-34.105c1.796-2.516 4.6-3.96 7.691-3.96 3.092 0 5.895 1.443 7.691 3.96l24.345 34.11c1.985 2.776 5.207 4.434 8.619 4.434h23.398c27.525 0 54.435 7.525 77.818 21.761 1.207.734 2.54 1.084 3.857 1.084 2.506 0 4.954-1.269 6.352-3.567 2.134-3.505 1.022-8.075-2.482-10.209-25.713-15.653-55.294-23.928-85.545-23.928h-21.202l-23.066-32.319c-4.552-6.378-11.948-10.186-19.785-10.186-7.836.001-15.233 3.809-19.785 10.187l-23.066 32.318h-30.025c-9.271 0-18.569.782-27.683 2.324l-24.587-34.449c-4.557-6.383-11.947-10.185-19.785-10.185-.039 0-.077 0-.116 0-7.882.038-15.284 3.916-19.801 10.374-.168.241-.323.491-.461.752l-28.129 52.531c-1.938 3.618-.576 8.12 3.042 10.057z"/><path d="m505.933 128.832c-4.509-5.463-10.874-8.842-17.935-9.518-14.546-1.365-27.519 9.338-28.91 23.87-1.29 13.487-9.993 24.725-22.472 29.348-4.456-5.404-9.28-10.555-14.373-15.341-2.99-2.811-7.692-2.664-10.501.325-2.81 2.99-2.664 7.692.325 10.501 5.317 4.997 10.314 10.431 14.85 16.149 2.62 3.302 6.938 4.697 11 3.554 19.875-5.592 33.99-22.519 35.961-43.121.611-6.39 6.322-11.106 12.715-10.494 6.399.612 11.106 6.316 10.494 12.714-1.555 16.241-8.64 31.694-19.951 43.513-6.684 6.985-14.617 12.516-23.579 16.441-5.143 2.251-7.593 8.297-5.461 13.476 3.047 7.403 5.498 15.088 7.314 22.875-11.958-3.024-24.261-4.559-36.704-4.559-82.441 0-149.511 67.07-149.511 149.511 0 13.262 1.738 26.362 5.171 39.059h-101.848c-37.404 0-73.223-13.854-100.86-39.011-3.035-2.763-7.735-2.542-10.495.492-2.763 3.035-2.541 7.733.492 10.495 30.379 27.653 69.75 42.882 110.862 42.882h104.683c7.277 0 14.118-2.834 19.262-7.979l166.638-166.638c6.573-6.574 9.334-15.9 7.386-24.948-1.742-8.092-4.117-16.099-7.076-23.86 9.184-4.552 17.396-10.582 24.46-17.962 13.609-14.222 22.134-32.821 24.006-52.37.675-7.051-1.436-13.941-5.943-19.404zm-217.733 292.433c-2.746-10.811-4.147-21.932-4.147-33.188 0-74.247 60.405-134.653 134.653-134.653 11.254 0 22.376 1.408 33.184 4.151l-12.506 12.506c-3.303-.575-6.633-1.029-9.963-1.325-4.075-.352-7.694 2.656-8.057 6.743-.307 3.457 1.81 6.562 4.942 7.66l-112.275 112.276c-.169-2.444-.261-4.907-.261-7.358 0-1.045.015-2.086.046-3.124.121-4.101-3.105-7.524-7.207-7.646-4.061-.113-7.523 3.106-7.646 7.207-.035 1.183-.052 2.371-.052 3.563 0 4.088.209 8.209.621 12.249.258 2.532 1.763 4.632 3.841 5.766z"/><path d="m173.188 182.889c-4.103 0-7.429 3.326-7.429 7.429v11.952c-2.188 2.224-5.177 3.524-8.343 3.524-3.852 0-7.461-1.9-9.656-5.081-2.329-3.377-6.954-4.227-10.334-1.897-3.377 2.329-4.226 6.956-1.897 10.334 4.968 7.203 13.15 11.503 21.887 11.503 5.753 0 11.259-1.874 15.772-5.204 4.512 3.33 10.018 5.204 15.771 5.204 8.738 0 16.92-4.301 21.887-11.503 2.329-3.378 1.48-8.005-1.898-10.333-3.377-2.33-8.006-1.48-10.333 1.898-2.194 3.182-5.804 5.08-9.656 5.08-3.166 0-6.155-1.299-8.342-3.523v-11.953c0-4.105-3.326-7.43-7.429-7.43z"/><path d="m105.698 176.887c0 5.486 4.447 9.933 9.933 9.933s9.933-4.447 9.933-9.933-4.447-9.933-9.933-9.933-9.933 4.447-9.933 9.933z"/><circle cx="230.745" cy="176.887" r="9.933"/><path d="m305.752 193.631c-13.066-1.134-25.959 1.193-37.28 6.72-3.687 1.799-5.217 6.248-3.417 9.934 1.799 3.686 6.247 5.22 9.934 3.417 8.9-4.345 19.09-6.169 29.481-5.269 10.386.9 20.115 4.446 28.135 10.256 1.318.955 2.842 1.414 4.353 1.414 2.3 0 4.569-1.066 6.022-3.071 2.408-3.323 1.666-7.968-1.657-10.375-10.201-7.391-22.501-11.895-35.571-13.026z"/><path d="m345.666 177.291c1.747-3.712.155-8.138-3.558-9.885-11.615-5.468-24.614-7.739-37.585-6.572-13.057 1.175-25.144 5.749-34.955 13.226-3.263 2.487-3.892 7.149-1.405 10.412 1.462 1.917 3.675 2.925 5.914 2.925 1.57 0 3.153-.495 4.498-1.521 7.581-5.779 17.013-9.321 27.279-10.245 10.348-.93 20.695.872 29.924 5.217 3.712 1.745 8.139.154 9.888-3.557z"/><path d="m310.225 357.806c3.767 1.359 8.118-.629 9.477-4.536 1.53-4.341 3.37-8.625 5.466-12.732 1.866-3.655.416-8.129-3.239-9.994-3.657-1.866-8.13-.415-9.994 3.239-2.395 4.693-4.497 9.586-6.246 14.547-1.364 3.869.667 8.111 4.536 9.476z"/><path d="m380.059 289.992c.85 0 1.716-.147 2.561-.458 4.328-1.59 8.803-2.904 13.301-3.903 4.006-.89 6.531-4.858 5.641-8.863s-4.86-6.532-8.863-5.641c-5.142 1.142-10.258 2.643-15.205 4.46-3.851 1.415-5.826 5.685-4.411 9.536 1.106 3.005 3.949 4.869 6.976 4.869z"/><path d="m338.773 316.609c1.917 0 3.834-.738 5.287-2.21 3.241-3.283 6.73-6.382 10.37-9.212 3.24-2.518 3.825-7.185 1.307-10.425-2.518-3.241-7.186-3.824-10.425-1.307-4.152 3.227-8.13 6.762-11.827 10.506-2.882 2.919-2.852 7.624.069 10.506 1.447 1.429 3.334 2.142 5.219 2.142z"/></g></g></svg>