<svg enable-background="new 0 0 24 24" height="512" viewBox="0 0 24 24" width="512" xmlns="http://www.w3.org/2000/svg"><path d="m12 24c-5.514 0-10-4.486-10-10s4.486-10 10-10 10 4.486 10 10-4.486 10-10 10zm0-19c-4.962 0-9 4.038-9 9s4.038 9 9 9 9-4.038 9-9-4.038-9-9-9z"/><path d="m14.5 5.34c-.276 0-.5-.224-.5-.5v-2.34c0-.827-.673-1.5-1.5-1.5h-1c-.827 0-1.5.673-1.5 1.5v2.34c0 .276-.224.5-.5.5s-.5-.224-.5-.5v-2.34c0-1.378 1.122-2.5 2.5-2.5h1c1.378 0 2.5 1.122 2.5 2.5v2.34c0 .276-.224.5-.5.5z"/><path d="m15.5 14c-.116 0-.231-.04-.325-.121l-3.175-2.72-3.175 2.721c-.198.169-.495.159-.679-.026l-2.7-2.7-2.545 1.823c-.224.161-.538.108-.698-.116-.161-.225-.109-.537.116-.698l2.89-2.07c.197-.143.472-.121.645.053l2.673 2.672 3.148-2.698c.187-.161.464-.161.65 0l3.148 2.698 2.673-2.672c.172-.174.445-.196.645-.053l2.89 2.07c.225.161.276.473.116.698-.161.224-.474.277-.698.116l-2.545-1.823-2.7 2.7c-.098.097-.226.146-.354.146z"/><path d="m15.5 18c-.116 0-.231-.04-.325-.121l-3.175-2.72-3.175 2.721c-.198.169-.495.159-.679-.026l-2.701-2.701-2.345 1.674c-.225.161-.538.108-.697-.116-.161-.225-.108-.537.116-.697l2.69-1.92c.199-.142.472-.119.644.053l2.673 2.672 3.148-2.698c.187-.161.464-.161.65 0l3.148 2.698 2.673-2.672c.172-.173.445-.196.644-.053l2.69 1.92c.225.16.277.473.116.697-.16.225-.472.278-.697.116l-2.345-1.674-2.701 2.701c-.096.097-.224.146-.352.146z"/></svg>